<?xml version="1.0" standalone="no"?><!DOCTYPE svg PUBLIC "-//W3C//DTD SVG 1.1//EN" "http://www.w3.org/Graphics/SVG/1.1/DTD/svg11.dtd"><svg t="1627200434577" class="icon" viewBox="0 0 1180 1024" version="1.1" xmlns="http://www.w3.org/2000/svg" p-id="1337" width="11.5234375" height="10" xmlns:xlink="http://www.w3.org/1999/xlink"><defs><style type="text/css">@font-face { font-family: feedback-iconfont; src: url("//at.alicdn.com/t/font_1031158_1uhr8ri0pk5.eot?#iefix") format("embedded-opentype"), url("//at.alicdn.com/t/font_1031158_1uhr8ri0pk5.woff2") format("woff2"), url("//at.alicdn.com/t/font_1031158_1uhr8ri0pk5.woff") format("woff"), url("//at.alicdn.com/t/font_1031158_1uhr8ri0pk5.ttf") format("truetype"), url("//at.alicdn.com/t/font_1031158_1uhr8ri0pk5.svg#iconfont") format("svg"); }
</style></defs><path d="M1099.433546 289.842983h-1.08787v-99.462424a128.679511 128.679511 0 0 0-93.246023-126.65918v-3.263611A60.454505 60.454505 0 0 0 944.023508 0.003264H729.246837A60.454505 60.454505 0 0 0 668.326102 59.836128H122.526051A126.65918 126.65918 0 0 0 0.062941 190.380559V890.502778a12.277393 12.277393 0 0 0 2.331151 6.216401v1.243281c0 72.110257 46.623011 126.03754 113.760147 126.03754H969.821575c67.603366 0 105.212595-68.225006 122.463109-130.544431L1174.652004 419.610365c18.182974-75.063048-7.459682-129.767381-75.218458-129.767382z m-897.337556 0a160.072339 160.072339 0 0 0-132.253942 78.637479v-124.32803a73.198128 73.198128 0 0 1 46.623011-54.859743H668.326102a60.609915 60.609915 0 0 1 60.454505-59.988274h215.242901a60.609915 60.609915 0 0 1 60.454505 60.609914v3.108201a126.50377 126.50377 0 0 1 90.604052 97.908324z" fill="#613F9D" p-id="1338"></path></svg>